<?xml version="1.0" encoding="UTF-8" ?>
<!DOCTYPE svg PUBLIC "-//W3C//DTD SVG 1.1//EN" "http://www.w3.org/Graphics/SVG/1.1/DTD/svg11.dtd">
<svg width="50px" height="50px" viewBox="0 0 200 200" version="1.1" xmlns="http://www.w3.org/2000/svg">
<g id="#000000ff">
<path fill="#000000" opacity="1.00" d=" M 94.22 10.25 C 111.78 9.09 129.67 13.21 144.89 22.09 C 164.23 33.21 179.20 51.72 185.86 73.03 C 191.61 91.17 191.40 111.17 185.18 129.16 C 178.32 149.32 163.98 166.78 145.64 177.58 C 130.17 186.78 111.88 191.09 93.93 189.83 C 74.76 188.61 56.10 180.91 41.57 168.37 C 25.72 154.86 14.74 135.73 11.32 115.17 C 7.59 93.74 12.02 71.01 23.63 52.60 C 38.59 28.28 65.66 11.86 94.22 10.25 M 95.39 16.51 C 81.99 17.25 68.77 21.26 57.26 28.19 C 39.43 38.77 25.77 56.19 19.87 76.09 C 15.21 91.61 15.19 108.50 19.88 124.02 C 25.82 144.10 39.69 161.65 57.76 172.21 C 83.61 187.76 117.98 187.48 143.55 171.46 C 160.09 161.41 172.93 145.46 179.19 127.15 C 184.82 110.73 185.20 92.55 180.14 75.95 C 174.16 55.89 160.28 38.35 142.20 27.83 C 128.17 19.53 111.65 15.60 95.39 16.51 Z" />
<path fill="#000000" opacity="1.00" d=" M 69.26 42.22 C 75.53 39.16 83.45 45.15 82.18 52.02 C 81.59 58.74 72.87 62.53 67.55 58.38 C 61.69 54.60 62.71 44.68 69.26 42.22 Z" />
<path fill="#000000" opacity="1.00" d=" M 101.24 42.20 C 107.51 39.18 115.39 45.15 114.14 52.00 C 113.58 58.70 104.89 62.52 99.56 58.42 C 93.64 54.67 94.64 44.64 101.24 42.20 Z" />
<path fill="#000000" opacity="1.00" d=" M 132.34 42.47 C 138.93 40.36 145.85 47.28 143.77 53.87 C 142.31 60.65 132.73 63.18 128.12 57.99 C 123.07 53.33 125.67 43.96 132.34 42.47 Z" />
<path fill="#000000" opacity="1.00" d=" M 69.38 74.56 C 75.70 72.19 82.88 78.41 81.42 85.01 C 80.57 92.12 70.77 95.36 65.84 90.18 C 60.67 85.74 62.83 76.36 69.38 74.56 Z" />
<path fill="#000000" opacity="1.00" d=" M 102.32 74.46 C 108.95 72.22 116.06 79.22 113.89 85.88 C 112.42 92.41 103.39 95.03 98.64 90.34 C 93.24 85.87 95.49 76.09 102.32 74.46 Z" />
<path fill="#000000" opacity="1.00" d=" M 68.35 105.52 C 74.54 102.32 82.58 108.09 81.51 114.97 C 81.11 121.96 71.94 125.91 66.59 121.39 C 61.03 117.54 62.11 108.07 68.35 105.52 Z" />
<path fill="#000000" opacity="1.00" d=" M 68.38 139.55 C 74.54 136.38 82.52 142.10 81.52 148.95 C 81.17 155.97 71.93 159.97 66.58 155.42 C 61.02 151.56 62.12 142.08 68.38 139.55 Z" />
</g>
</svg>
