<?xml version="1.0" encoding="UTF-8" ?>
<!DOCTYPE svg PUBLIC "-//W3C//DTD SVG 1.1//EN" "http://www.w3.org/Graphics/SVG/1.1/DTD/svg11.dtd">
<svg width="50px" height="50px" viewBox="0 0 200 200" version="1.1" xmlns="http://www.w3.org/2000/svg">
<g id="#582bfcff">
<path fill="#582bfc" opacity="1.00" d=" M 94.20 10.25 C 113.24 8.97 132.65 13.97 148.65 24.39 C 166.17 35.64 179.61 53.12 185.85 73.00 C 191.62 91.19 191.41 111.25 185.13 129.29 C 178.17 149.63 163.60 167.21 144.99 177.95 C 129.67 186.89 111.64 191.06 93.94 189.83 C 74.76 188.61 56.10 180.90 41.56 168.35 C 25.72 154.85 14.75 135.73 11.33 115.19 C 7.60 93.77 12.02 71.05 23.61 52.64 C 38.56 28.31 65.63 11.87 94.20 10.25 M 95.33 16.52 C 78.11 17.44 61.26 23.90 47.84 34.73 C 33.65 46.04 23.25 62.06 18.88 79.70 C 14.29 97.78 16.02 117.39 23.74 134.38 C 30.93 150.33 43.25 163.90 58.43 172.60 C 75.47 182.52 96.10 185.95 115.45 182.29 C 144.73 177.06 170.09 154.89 179.36 126.65 C 184.83 110.36 185.15 92.38 180.14 75.93 C 174.16 55.88 160.28 38.35 142.21 27.84 C 128.16 19.52 111.61 15.58 95.33 16.52 Z" />
<path fill="#582bfc" opacity="1.00" d=" M 69.23 42.23 C 75.12 39.37 82.69 44.44 82.26 50.97 C 82.44 57.83 73.94 62.58 68.20 58.79 C 61.74 55.39 62.40 44.80 69.23 42.23 Z" />
<path fill="#582bfc" opacity="1.00" d=" M 101.28 42.18 C 107.54 39.21 115.38 45.16 114.14 51.99 C 113.57 58.68 104.92 62.51 99.59 58.44 C 93.63 54.69 94.64 44.61 101.28 42.18 Z" />
<path fill="#582bfc" opacity="1.00" d=" M 131.47 42.75 C 137.85 40.00 145.44 46.27 143.94 53.05 C 143.09 60.03 133.60 63.35 128.58 58.43 C 123.32 54.18 125.09 44.87 131.47 42.75 Z" />
<path fill="#582bfc" opacity="1.00" d=" M 69.39 74.56 C 76.07 72.03 83.44 79.11 81.23 85.89 C 79.73 92.53 70.47 95.06 65.80 90.14 C 60.68 85.68 62.85 76.35 69.39 74.56 Z" />
<path fill="#582bfc" opacity="1.00" d=" M 101.50 74.74 C 106.41 72.65 112.60 75.76 113.88 80.92 C 115.42 85.89 111.96 91.57 106.87 92.53 C 102.20 93.67 97.07 90.54 95.92 85.88 C 94.60 81.44 97.16 76.35 101.50 74.74 Z" />
<path fill="#582bfc" opacity="1.00" d=" M 68.40 105.49 C 73.53 102.96 80.32 106.37 81.34 112.00 C 82.68 117.30 78.42 123.04 72.96 123.28 C 67.76 123.83 62.79 119.26 62.92 114.03 C 62.85 110.42 65.13 106.97 68.40 105.49 Z" />
<path fill="#582bfc" opacity="1.00" d=" M 69.28 139.19 C 75.76 136.68 83.13 143.25 81.35 149.97 C 80.24 156.79 70.89 159.80 66.00 154.94 C 60.71 150.59 62.69 141.09 69.28 139.19 Z" />
</g>
</svg>
