<?xml version="1.0" encoding="UTF-8" ?>
<!DOCTYPE svg PUBLIC "-//W3C//DTD SVG 1.1//EN" "http://www.w3.org/Graphics/SVG/1.1/DTD/svg11.dtd">
<svg width="50px" height="50px" viewBox="0 0 200 200" version="1.1" xmlns="http://www.w3.org/2000/svg">
<g id="#2bfcfcff">
<path fill="#2bfcfc" opacity="1.00" d=" M 88.49 10.80 C 106.68 8.45 125.58 11.76 141.79 20.38 C 160.14 30.00 175.00 46.13 182.99 65.26 C 191.44 85.13 192.30 108.09 185.38 128.55 C 178.89 148.07 165.42 165.13 148.04 176.10 C 132.37 186.11 113.51 190.98 94.95 189.89 C 75.42 188.87 56.36 181.13 41.56 168.36 C 25.69 154.83 14.70 135.65 11.30 115.05 C 7.74 94.34 11.76 72.43 22.54 54.39 C 36.34 30.81 61.33 14.14 88.49 10.80 M 95.37 16.51 C 78.12 17.43 61.22 23.91 47.78 34.78 C 33.84 45.92 23.55 61.61 19.09 78.91 C 14.18 97.45 15.95 117.68 24.06 135.07 C 31.20 150.52 43.16 163.70 57.87 172.28 C 75.03 182.45 95.93 186.00 115.52 182.28 C 145.07 176.98 170.61 154.40 179.64 125.79 C 184.85 109.73 185.06 92.08 180.14 75.92 C 174.15 55.87 160.27 38.34 142.19 27.83 C 128.16 19.53 111.64 15.59 95.37 16.51 Z" />
<path fill="#2bfcfc" opacity="1.00" d=" M 69.23 42.23 C 75.12 39.36 82.70 44.46 82.26 50.99 C 82.43 57.85 73.89 62.60 68.16 58.77 C 61.74 55.35 62.42 44.80 69.23 42.23 Z" />
<path fill="#2bfcfc" opacity="1.00" d=" M 101.26 42.19 C 107.16 39.40 114.67 44.49 114.22 51.01 C 114.37 57.86 105.86 62.58 100.13 58.78 C 93.68 55.34 94.37 44.71 101.26 42.19 Z" />
<path fill="#2bfcfc" opacity="1.00" d=" M 131.46 42.75 C 137.83 39.99 145.41 46.25 143.95 53.01 C 143.13 60.01 133.61 63.36 128.58 58.43 C 123.33 54.19 125.08 44.88 131.46 42.75 Z" />
<path fill="#2bfcfc" opacity="1.00" d=" M 69.39 74.56 C 76.06 72.04 83.43 79.09 81.23 85.87 C 79.75 92.50 70.52 95.06 65.82 90.17 C 60.68 85.72 62.83 76.36 69.39 74.56 Z" />
<path fill="#2bfcfc" opacity="1.00" d=" M 101.44 74.77 C 106.37 72.63 112.61 75.74 113.88 80.95 C 115.33 85.68 112.27 91.09 107.52 92.37 C 103.03 93.79 97.79 91.20 96.21 86.77 C 94.32 82.20 96.82 76.49 101.44 74.77 Z" />
<path fill="#2bfcfc" opacity="1.00" d=" M 68.44 105.48 C 74.63 102.37 82.58 108.14 81.50 114.98 C 81.10 121.95 71.96 125.90 66.62 121.41 C 61.00 117.55 62.12 107.99 68.44 105.48 Z" />
<path fill="#2bfcfc" opacity="1.00" d=" M 69.25 139.20 C 75.71 136.67 83.10 143.20 81.36 149.93 C 80.29 156.75 70.94 159.81 66.03 154.96 C 60.72 150.63 62.67 141.12 69.25 139.20 Z" />
</g>
</svg>
