<?xml version="1.0" encoding="UTF-8" ?>
<!DOCTYPE svg PUBLIC "-//W3C//DTD SVG 1.1//EN" "http://www.w3.org/Graphics/SVG/1.1/DTD/svg11.dtd">
<svg width="50px" height="50px" viewBox="0 0 200 200" version="1.1" xmlns="http://www.w3.org/2000/svg">
<g id="#7112e6ff">
<path fill="#7112e6" opacity="1.00" d=" M 94.24 10.25 C 113.02 9.00 132.15 13.84 148.01 23.98 C 165.84 35.22 179.54 52.88 185.85 73.01 C 191.62 91.19 191.40 111.24 185.14 129.26 C 178.10 149.85 163.27 167.61 144.34 178.33 C 126.53 188.53 105.14 192.26 84.92 188.76 C 64.31 185.33 45.13 174.30 31.62 158.40 C 18.23 142.84 10.42 122.57 10.07 102.03 C 9.59 83.49 15.12 64.88 25.59 49.59 C 40.86 26.89 66.89 11.80 94.24 10.25 M 95.37 16.51 C 78.12 17.43 61.23 23.91 47.79 34.77 C 33.79 45.95 23.49 61.71 19.04 79.07 C 14.19 97.58 15.98 117.77 24.08 135.11 C 31.41 150.98 43.84 164.41 59.07 172.97 C 75.32 182.23 94.75 185.63 113.20 182.68 C 143.99 178.09 170.88 154.73 179.90 124.96 C 185.40 107.43 184.90 88.09 178.45 70.89 C 171.69 52.72 158.41 37.08 141.58 27.47 C 127.68 19.41 111.40 15.61 95.37 16.51 Z" />
<path fill="#7112e6" opacity="1.00" d=" M 69.29 42.21 C 75.19 39.38 82.73 44.50 82.26 51.03 C 82.40 57.85 73.93 62.56 68.22 58.80 C 61.72 55.40 62.40 44.74 69.29 42.21 Z" />
<path fill="#7112e6" opacity="1.00" d=" M 101.24 42.20 C 107.53 39.18 115.42 45.18 114.14 52.04 C 113.53 58.72 104.89 62.50 99.57 58.42 C 93.64 54.67 94.64 44.64 101.24 42.20 Z" />
<path fill="#7112e6" opacity="1.00" d=" M 131.47 42.75 C 137.85 39.99 145.43 46.27 143.94 53.04 C 143.10 60.01 133.63 63.35 128.60 58.45 C 123.33 54.20 125.08 44.88 131.47 42.75 Z" />
<path fill="#7112e6" opacity="1.00" d=" M 69.40 74.55 C 76.06 72.04 83.42 79.09 81.24 85.86 C 79.77 92.50 70.52 95.06 65.83 90.17 C 60.67 85.72 62.84 76.35 69.40 74.55 Z" />
<path fill="#7112e6" opacity="1.00" d=" M 101.51 74.74 C 106.41 72.67 112.56 75.74 113.86 80.87 C 115.44 85.84 111.98 91.55 106.89 92.53 C 102.22 93.67 97.08 90.55 95.92 85.90 C 94.59 81.45 97.16 76.34 101.51 74.74 Z" />
<path fill="#7112e6" opacity="1.00" d=" M 68.35 105.52 C 74.54 102.31 82.57 108.09 81.50 114.97 C 81.11 121.97 71.90 125.92 66.56 121.36 C 61.03 117.50 62.13 108.08 68.35 105.52 Z" />
<path fill="#7112e6" opacity="1.00" d=" M 69.15 139.24 C 75.64 136.60 83.13 143.18 81.36 149.95 C 80.26 156.78 70.89 159.81 65.99 154.94 C 60.75 150.61 62.66 141.21 69.15 139.24 Z" />
</g>
</svg>
