<?xml version="1.0" encoding="UTF-8" ?>
<!DOCTYPE svg PUBLIC "-//W3C//DTD SVG 1.1//EN" "http://www.w3.org/Graphics/SVG/1.1/DTD/svg11.dtd">
<svg width="50px" height="50px" viewBox="0 0 200 200" version="1.1" xmlns="http://www.w3.org/2000/svg">
<g id="#3500f5ff">
<path fill="#3500f5" opacity="1.00" d=" M 94.25 10.25 C 113.28 8.98 132.66 13.98 148.64 24.39 C 166.17 35.64 179.61 53.11 185.85 72.99 C 191.55 90.95 191.41 110.73 185.37 128.58 C 178.88 148.07 165.43 165.11 148.08 176.08 C 132.40 186.10 113.54 190.98 94.98 189.90 C 75.45 188.88 56.38 181.14 41.58 168.38 C 25.95 155.05 15.05 136.26 11.47 116.02 C 7.77 95.76 11.30 74.26 21.43 56.32 C 35.91 30.02 64.22 11.90 94.25 10.25 M 95.41 16.51 C 78.14 17.42 61.24 23.91 47.79 34.77 C 33.78 45.96 23.46 61.74 19.03 79.13 C 14.26 97.37 15.94 117.23 23.75 134.39 C 31.03 150.54 43.57 164.25 59.01 172.94 C 75.75 182.49 95.87 185.83 114.82 182.41 C 144.67 177.32 170.56 154.62 179.65 125.76 C 184.85 109.71 185.05 92.07 180.14 75.92 C 174.15 55.87 160.26 38.33 142.18 27.82 C 128.16 19.53 111.65 15.60 95.41 16.51 Z" />
<path fill="#3500f5" opacity="1.00" d=" M 69.21 42.24 C 75.13 39.34 82.76 44.49 82.26 51.06 C 82.37 57.88 73.89 62.57 68.19 58.78 C 61.75 55.38 62.40 44.83 69.21 42.24 Z" />
<path fill="#3500f5" opacity="1.00" d=" M 101.25 42.19 C 107.54 39.18 115.42 45.19 114.14 52.05 C 113.52 58.73 104.87 62.50 99.56 58.42 C 93.64 54.66 94.65 44.63 101.25 42.19 Z" />
<path fill="#3500f5" opacity="1.00" d=" M 131.54 42.72 C 137.92 40.04 145.44 46.31 143.94 53.06 C 143.09 60.02 133.61 63.35 128.59 58.44 C 123.30 54.18 125.10 44.80 131.54 42.72 Z" />
<path fill="#3500f5" opacity="1.00" d=" M 69.40 74.55 C 76.08 72.04 83.44 79.12 81.23 85.90 C 79.74 92.51 70.52 95.05 65.83 90.18 C 60.67 85.73 62.84 76.34 69.40 74.55 Z" />
<path fill="#3500f5" opacity="1.00" d=" M 101.54 74.73 C 107.92 71.92 115.62 78.20 114.08 85.02 C 113.24 91.69 104.40 95.14 99.25 90.84 C 93.50 86.85 94.91 76.95 101.54 74.73 Z" />
<path fill="#3500f5" opacity="1.00" d=" M 68.45 105.47 C 74.64 102.37 82.58 108.15 81.50 114.99 C 81.09 121.97 71.92 125.91 66.58 121.38 C 61.00 117.50 62.14 107.97 68.45 105.47 Z" />
<path fill="#3500f5" opacity="1.00" d=" M 69.24 139.21 C 75.73 136.65 83.13 143.24 81.35 149.98 C 80.24 156.80 70.88 159.80 65.99 154.94 C 60.73 150.59 62.68 141.13 69.24 139.21 Z" />
</g>
</svg>
