<?xml version="1.0" encoding="UTF-8" ?>
<!DOCTYPE svg PUBLIC "-//W3C//DTD SVG 1.1//EN" "http://www.w3.org/Graphics/SVG/1.1/DTD/svg11.dtd">
<svg width="50px" height="50px" viewBox="0 0 200 200" version="1.1" xmlns="http://www.w3.org/2000/svg">
<g id="#12c6e6ff">
<path fill="#12c6e6" opacity="1.00" d=" M 94.17 10.26 C 112.97 8.99 132.12 13.83 148.00 23.98 C 165.85 35.23 179.56 52.90 185.86 73.05 C 191.62 91.22 191.40 111.24 185.15 129.25 C 178.11 149.85 163.27 167.62 144.33 178.33 C 126.52 188.53 105.14 192.26 84.93 188.76 C 64.09 185.30 44.71 174.06 31.17 157.87 C 17.62 141.89 9.95 121.03 10.05 100.06 C 9.95 79.78 17.11 59.60 29.85 43.84 C 45.37 24.34 69.25 11.72 94.17 10.26 M 95.35 16.51 C 78.12 17.44 61.25 23.90 47.83 34.74 C 33.82 45.91 23.51 61.67 19.05 79.04 C 14.26 97.29 15.92 117.16 23.73 134.35 C 30.92 150.33 43.27 163.93 58.48 172.63 C 74.54 181.96 93.80 185.54 112.16 182.84 C 143.69 178.57 171.33 154.58 180.18 124.05 C 185.39 106.75 184.79 87.76 178.43 70.84 C 171.66 52.67 158.36 37.02 141.50 27.43 C 127.62 19.39 111.35 15.61 95.35 16.51 Z" />
<path fill="#12c6e6" opacity="1.00" d=" M 69.24 42.23 C 75.51 39.15 83.44 45.15 82.18 52.02 C 81.59 58.74 72.85 62.54 67.54 58.36 C 61.70 54.59 62.72 44.70 69.24 42.23 Z" />
<path fill="#12c6e6" opacity="1.00" d=" M 101.25 42.20 C 107.54 39.17 115.45 45.21 114.13 52.08 C 113.49 58.76 104.83 62.51 99.53 58.39 C 93.64 54.62 94.66 44.63 101.25 42.20 Z" />
<path fill="#12c6e6" opacity="1.00" d=" M 131.45 42.76 C 136.38 40.71 142.52 43.86 143.76 49.04 C 145.34 54.23 141.43 60.11 136.06 60.69 C 131.19 61.52 126.20 57.77 125.55 52.90 C 124.80 48.68 127.44 44.23 131.45 42.76 Z" />
<path fill="#12c6e6" opacity="1.00" d=" M 69.33 74.57 C 76.05 71.99 83.49 79.14 81.21 85.95 C 79.68 92.53 70.50 95.03 65.83 90.18 C 60.69 85.74 62.82 76.41 69.33 74.57 Z" />
<path fill="#12c6e6" opacity="1.00" d=" M 101.55 74.72 C 106.44 72.68 112.58 75.76 113.87 80.89 C 115.43 85.84 111.99 91.53 106.92 92.52 C 102.26 93.68 97.11 90.59 95.93 85.94 C 94.57 81.47 97.17 76.32 101.55 74.72 Z" />
<path fill="#12c6e6" opacity="1.00" d=" M 68.42 105.49 C 74.61 102.35 82.59 108.14 81.50 115.00 C 81.08 121.98 71.90 125.91 66.57 121.37 C 61.01 117.49 62.14 108.01 68.42 105.49 Z" />
<path fill="#12c6e6" opacity="1.00" d=" M 69.21 139.22 C 75.69 136.64 83.12 143.21 81.36 149.96 C 80.25 156.78 70.91 159.80 66.01 154.95 C 60.73 150.61 62.66 141.16 69.21 139.22 Z" />
</g>
</svg>
