<?xml version="1.0" encoding="UTF-8" ?>
<!DOCTYPE svg PUBLIC "-//W3C//DTD SVG 1.1//EN" "http://www.w3.org/Graphics/SVG/1.1/DTD/svg11.dtd">
<svg width="50px" height="50px" viewBox="0 0 200 200" version="1.1" xmlns="http://www.w3.org/2000/svg">
<g id="#ffffffff">
<path fill="#ffffff" opacity="1.00" d=" M 88.54 10.79 C 106.73 8.45 125.63 11.77 141.83 20.40 C 160.36 30.13 175.32 46.50 183.25 65.88 C 191.56 85.84 192.24 108.84 185.14 129.26 C 177.87 150.56 162.24 168.81 142.40 179.40 C 124.99 188.80 104.41 192.13 84.93 188.76 C 64.08 185.29 44.70 174.05 31.16 157.86 C 18.04 142.37 10.42 122.32 10.07 102.01 C 9.58 83.02 15.41 63.96 26.38 48.45 C 40.66 27.97 63.73 13.86 88.54 10.79 M 84.54 17.83 C 54.88 23.15 29.27 45.87 20.32 74.63 C 13.98 94.30 15.30 116.32 24.05 135.06 C 31.37 150.92 43.77 164.35 58.99 172.92 C 76.38 182.86 97.43 186.08 117.02 181.98 C 131.27 179.06 144.68 172.26 155.53 162.59 C 169.65 150.11 179.40 132.75 182.50 114.15 C 185.40 97.32 183.00 79.62 175.62 64.21 C 168.22 48.65 155.92 35.47 140.87 27.07 C 123.97 17.46 103.63 14.20 84.54 17.83 Z" />
<path fill="#ffffff" opacity="1.00" d=" M 69.28 42.21 C 75.60 39.14 83.52 45.26 82.17 52.14 C 81.47 58.78 72.86 62.49 67.57 58.39 C 61.68 54.62 62.72 44.66 69.28 42.21 Z" />
<path fill="#ffffff" opacity="1.00" d=" M 101.22 42.21 C 107.55 39.15 115.48 45.25 114.13 52.14 C 113.44 58.77 104.83 62.49 99.55 58.41 C 93.65 54.65 94.65 44.66 101.22 42.21 Z" />
<path fill="#ffffff" opacity="1.00" d=" M 131.45 42.76 C 136.45 40.69 142.66 43.95 143.81 49.22 C 145.25 54.37 141.37 60.11 136.07 60.69 C 131.22 61.52 126.24 57.81 125.56 52.96 C 124.78 48.71 127.43 44.24 131.45 42.76 Z" />
<path fill="#ffffff" opacity="1.00" d=" M 69.44 74.54 C 74.65 72.69 80.80 76.54 81.45 82.02 C 82.40 87.20 78.16 92.50 72.91 92.72 C 67.94 93.20 63.16 89.04 62.94 84.06 C 62.57 79.88 65.44 75.75 69.44 74.54 Z" />
<path fill="#ffffff" opacity="1.00" d=" M 101.47 74.76 C 106.39 72.64 112.59 75.75 113.88 80.93 C 115.43 85.90 111.93 91.60 106.83 92.54 C 102.15 93.65 97.02 90.50 95.90 85.83 C 94.63 81.41 97.17 76.36 101.47 74.76 Z" />
<path fill="#ffffff" opacity="1.00" d=" M 68.43 105.48 C 74.65 102.35 82.63 108.18 81.50 115.06 C 81.03 122.00 71.92 125.88 66.60 121.39 C 61.01 117.52 62.12 108.00 68.43 105.48 Z" />
<path fill="#ffffff" opacity="1.00" d=" M 68.44 139.52 C 74.61 136.41 82.54 142.16 81.51 148.99 C 81.13 156.03 71.84 159.98 66.51 155.37 C 61.00 151.46 62.17 142.02 68.44 139.52 Z" />
</g>
</svg>
